<svg xmlns="http://www.w3.org/2000/svg" viewBox="0 0 619.1 129" id="devfolio">
  <g>
    <g>
      <path fill="#273339" d="M156 24h33.8a52.81 52.81 0 0123.75 4.93 34.94 34.94 0 0115.26 14.3 44.35 44.35 0 015.3 22.2 45 45 0 01-5.25 22.34 34.63 34.63 0 01-15.21 14.3A53.13 53.13 0 01189.81 107H156zm31.67 65a24.59 24.59 0 0018.08-6 24.41 24.41 0 006-18.08 24.18 24.18 0 00-6-18.08A24.72 24.72 0 00187.67 41H177V89zM298 82H262a12.66 12.66 0 004.34 8.09 14.45 14.45 0 009.09 2.45 28.89 28.89 0 0016.26-5.27L297 100.9a34 34 0 01-10.45 5 42.52 42.52 0 01-12.17 1.82 38.07 38.07 0 01-17.22-3.63 26 26 0 01-11.18-10.45A31.3 31.3 0 01242 77.68a32.21 32.21 0 013.68-15.54A26.58 26.58 0 01256 51.47 29.39 29.39 0 01271 47.66a25.44 25.44 0 0119.53 8A32.07 32.07 0 01298 77zM262 72H280.2q-.68-10.31-9.09-10.31T262 72zM345.58 49h20.55l-25.91 58H322.88l-25.5-58h22l12.77 32.69zM403 50h13V65H402v42H381V65H371V50h10.71a23.35 23.35 0 018-17.86A38.06 38.06 0 01412 25.31l7.22-.45 1.2 14.87-5.56.22a19.37 19.37 0 00-9.2 2A6.74 6.74 0 00403 48zM434.43 104A26.48 26.48 0 01423.3 93.51a31.3 31.3 0 01-3.91-15.95 31 31 0 013.91-15.9A26.3 26.3 0 01434.38 51.3a40.48 40.48 0 0133.53 0A26.3 26.3 0 01479 61.66a31 31 0 013.91 15.9A31.3 31.3 0 01479 93.51 26.58 26.58 0 01467.68 104a39.75 39.75 0 01-33.43 0zm27.85-26.26q0-14.54-11.13-14.54T440 77.74q0 14.54 11.13 14.54T462.27 77.74zM492 107V24h21v83zM525 20h22V39H525zm0 86.86V49h21v58zM570.62 104a26.48 26.48 0 01-11.13-10.49 31.3 31.3 0 01-3.91-15.95 31 31 0 013.91-15.9A26.3 26.3 0 01570.57 51.3a40.48 40.48 0 0133.53 0 26.3 26.3 0 0111.08 10.36 31 31 0 013.91 15.9 31.3 31.3 0 01-3.91 15.95A26.58 26.58 0 01604 104a39.75 39.75 0 01-33.43 0zm27.85-26q0-14.54-11.13-14.54T576.21 78q0 14.54 11.13 14.54T598.42 78z"></path>
      <path fill="#3770ff" d="M118,70.7c.26,29.53-21.71,54.87-50.95,58.2a16.34,16.34,0,0,1-1.86.1c-5.82,0-37.28,0-48.9-.47a12.9,12.9,0,0,1-10.36-7.81,15.81,15.81,0,0,0,5.5,1.32c4,.36,11.06,0,20.69,0,10.25,0,21.33.09,26.64.14a46.78,46.78,0,0,0,8.46-.65A60.65,60.65,0,0,0,102,102.23a63.6,63.6,0,0,0,16-35.07Z"></path>
      <path fill="#3770ff" d="M113.34,58A58,58,0,0,1,61,116H12A14,14,0,0,1,0,102V14C0,7,5,0,12,0H62A57,57,0,0,1,113.34,58Z"></path>
    </g>
  </g>
</svg>
